<?xml version="1.0" standalone="no"?>
<!DOCTYPE svg PUBLIC "-//W3C//DTD SVG 20010904//EN"
 "http://www.w3.org/TR/2001/REC-SVG-20010904/DTD/svg10.dtd">
<svg version="1.0" xmlns="http://www.w3.org/2000/svg"
 width="16.000000pt" height="16.000000pt" viewBox="0 0 16.000000 16.000000"
 preserveAspectRatio="xMidYMid meet">
<metadata>
Created by potrace 1.11, written by Peter Selinger 2001-2013
</metadata>
<g transform="translate(0.000000,16.000000) scale(0.003340,-0.003340)"
fill="#000000" stroke="none">
<path d="M1915 4690 c-21 -17 -45 -40 -52 -50 -8 -11 -20 -20 -28 -20 -46 0
-215 -75 -300 -132 -76 -52 -95 -74 -95 -110 0 -17 -4 -27 -10 -23 -9 5 -67
-21 -80 -36 -3 -3 -25 -17 -50 -32 -112 -65 -194 -158 -221 -252 -18 -62 -21
-151 -5 -164 20 -17 66 23 66 57 0 20 3 23 9 13 5 -8 18 -12 30 -8 14 3 21 0
21 -9 0 -8 -5 -14 -10 -14 -18 0 15 -104 44 -137 6 -7 31 -39 56 -72 65 -85
98 -105 174 -105 50 0 69 5 106 28 25 16 47 33 48 37 2 5 9 9 16 9 7 0 31 12
52 26 32 22 51 27 108 28 62 1 72 -1 97 -25 35 -33 37 -89 5 -134 -60 -81 -82
-202 -69 -361 5 -50 6 -105 2 -122 -5 -23 -3 -29 7 -25 19 7 18 -3 -8 -51 -38
-69 -89 -139 -128 -176 -61 -58 -129 -114 -149 -124 -10 -4 -24 -19 -30 -33
-7 -16 -17 -23 -26 -19 -8 3 -17 1 -20 -3 -5 -9 -104 -37 -117 -33 -5 1 -8 -2
-8 -7 0 -10 -59 -4 -97 10 -13 5 -23 13 -23 20 0 12 -51 132 -120 284 -21 44
-28 77 -29 124 -1 74 -16 103 -64 127 -17 9 -40 25 -50 35 -18 20 -57 26 -57
10 0 -5 -9 -13 -20 -16 -28 -9 -28 -75 0 -100 29 -27 25 -58 -16 -101 -30 -33
-35 -44 -30 -72 5 -35 46 -82 71 -82 7 0 26 -26 43 -57 83 -165 96 -188 104
-191 18 -8 6 -37 -32 -78 -42 -46 -49 -76 -25 -110 8 -12 17 -37 20 -55 3 -19
15 -46 25 -61 11 -15 20 -36 20 -47 0 -11 11 -32 23 -47 21 -24 31 -28 81 -28
l58 0 37 -56 c41 -62 55 -94 83 -195 11 -38 27 -77 36 -85 29 -26 52 -68 52
-95 0 -14 11 -43 25 -63 37 -56 127 -273 123 -296 -5 -31 37 -137 68 -173 19
-21 41 -45 48 -53 17 -19 41 -75 68 -160 12 -36 33 -101 48 -145 14 -44 26
-97 25 -118 0 -20 4 -37 9 -37 5 0 7 -3 3 -6 -3 -3 8 -28 24 -55 16 -28 29
-52 29 -55 0 -3 12 -21 27 -40 22 -30 73 -120 73 -131 0 -2 -9 -3 -20 -3 -11
0 -20 -4 -20 -9 0 -5 -11 -12 -24 -15 -21 -5 -25 -13 -28 -49 -3 -45 15 -91
55 -141 23 -28 27 -29 88 -26 35 2 90 4 122 4 31 1 57 4 57 7 0 4 33 9 73 13
39 3 97 10 127 16 30 5 73 12 95 15 22 4 61 12 87 20 32 9 77 12 136 9 l88 -5
23 31 c12 17 20 37 18 44 -3 8 0 19 6 26 9 10 8 12 -5 7 -16 -6 -17 3 -16 101
1 90 -2 115 -20 156 -12 27 -22 55 -22 62 0 8 -5 14 -10 14 -7 0 -7 6 0 20 6
11 10 37 9 58 0 20 4 61 10 91 16 79 17 222 1 260 -10 25 -10 38 -1 57 15 34
14 75 -4 100 -19 28 -24 59 -32 191 -6 112 -6 113 30 200 19 48 45 114 57 146
12 31 25 57 29 57 17 0 110 -255 131 -362 6 -32 22 -78 35 -102 18 -34 23 -56
19 -88 -7 -70 -12 -84 -43 -117 -18 -19 -28 -40 -26 -51 4 -23 36 -69 48 -70
5 0 5 -4 2 -10 -3 -5 -2 -10 4 -10 18 0 32 -70 30 -155 -1 -47 1 -88 5 -92 3
-3 6 -18 6 -32 0 -14 7 -44 15 -67 9 -27 12 -66 9 -115 -6 -108 -6 -113 6
-117 6 -2 2 -11 -9 -19 -12 -8 -21 -21 -21 -30 0 -9 -16 -35 -35 -59 -19 -23
-35 -47 -35 -53 0 -6 -4 -11 -10 -11 -5 0 -10 -6 -10 -13 0 -7 -9 -30 -20 -51
l-19 -38 24 -49 c14 -27 25 -55 25 -63 0 -27 35 -35 121 -30 127 7 150 6 199
-6 58 -15 116 -7 174 24 42 22 106 79 106 94 0 3 20 24 43 47 33 31 46 52 50
82 4 22 14 58 24 79 32 75 29 94 -31 167 -51 63 -56 90 -61 325 -6 255 -18
402 -33 402 -4 0 -13 15 -20 32 -7 18 -17 41 -22 50 -22 40 -5 280 22 315 5 6
7 29 4 50 -3 21 -10 76 -16 123 -16 119 -19 140 -30 161 -6 10 -10 19 -10 21
0 3 31 3 69 2 80 -2 115 11 119 47 2 20 -14 42 -81 110 -102 105 -114 134 -80
201 13 28 25 75 29 117 4 39 11 71 15 71 5 0 9 -4 9 -9 0 -14 67 4 85 23 9 9
21 16 27 16 6 0 26 12 45 26 l34 26 -4 121 c-3 67 -9 142 -15 167 -10 42 -17
140 -27 385 -3 55 -9 123 -15 150 -30 144 -32 204 -6 206 41 3 102 -5 108 -14
4 -7 8 -7 8 -2 0 6 13 18 30 27 27 15 28 19 20 50 -12 41 -12 40 3 33 6 -4 3
1 -7 9 -11 9 -26 16 -33 16 -7 0 -13 4 -13 9 0 6 -8 9 -17 9 -17 -1 -123 58
-123 68 0 3 5 2 10 -1 6 -3 10 -1 10 4 0 6 -6 11 -14 11 -14 0 -26 60 -26 135
0 53 -21 102 -81 186 -59 81 -103 102 -249 120 -58 7 -111 19 -118 26 -8 7
-26 11 -40 9 -15 -2 -34 -5 -43 -5 -9 -1 -26 -9 -37 -20 -18 -15 -39 -18 -123
-19 -56 0 -129 -4 -163 -8 -34 -4 -70 -6 -81 -5 -11 2 -27 4 -35 6 -21 3 -97
-21 -122 -40 -13 -8 -39 -15 -59 -15 -74 0 -99 -17 -129 -90 -5 -14 -14 -32
-19 -40 -5 -8 -15 -34 -21 -57 -11 -35 -10 -48 4 -82 21 -55 21 -58 -11 -64
-28 -5 -48 9 -169 124 -17 16 -39 29 -49 29 -13 0 -15 5 -10 18 18 39 16 84
-5 150 l-22 71 32 33 c44 46 53 73 45 143 -5 53 -10 63 -38 82 -18 12 -72 30
-122 39 -49 10 -92 19 -94 21 -2 2 3 11 11 20 9 10 13 24 11 31 -8 21 -38 14
-78 -18z m65 -2120 c0 -5 5 -9 12 -7 7 1 31 -35 53 -79 39 -79 103 -160 223
-281 50 -51 66 -83 40 -83 -6 0 -8 -3 -5 -7 4 -3 1 -16 -7 -29 -8 -12 -12 -25
-8 -29 6 -6 8 -38 12 -235 2 -77 18 -151 37 -165 13 -10 15 -27 12 -107 -1
-27 1 -51 4 -55 4 -3 1 -13 -6 -21 -10 -13 -9 -14 1 -8 9 5 12 -1 10 -23 -1
-17 -5 -31 -8 -31 -6 0 -7 -4 -12 -99 -3 -45 -9 -66 -21 -72 -21 -12 -33 -77
-19 -100 7 -10 16 -39 22 -65 10 -42 9 -49 -10 -66 -28 -26 -27 -87 3 -118 20
-22 22 -35 22 -120 0 -52 3 -102 7 -110 6 -11 -4 -22 -34 -40 -22 -14 -51 -41
-65 -61 -17 -26 -31 -36 -49 -36 -28 0 -37 15 -85 147 -21 59 -70 150 -98 184
-6 7 -20 48 -31 92 -11 44 -48 135 -84 209 -65 130 -76 157 -81 200 -1 13 -12
40 -24 61 -12 20 -29 66 -37 102 -8 35 -26 79 -39 96 -13 17 -43 70 -68 117
-24 47 -48 92 -53 100 -5 8 -9 17 -10 22 -1 4 -3 9 -4 12 -1 3 -3 9 -4 13 -1
11 -36 90 -86 197 -50 106 -90 202 -90 215 0 5 8 10 19 10 10 0 24 6 31 14 6
8 50 34 98 59 48 24 117 60 154 81 37 20 79 39 95 42 15 3 35 13 44 23 9 10
32 23 50 30 19 7 41 17 49 21 21 12 40 12 40 0z"/>
<path d="M831 1494 c0 -11 3 -14 6 -6 3 7 2 16 -1 19 -3 4 -6 -2 -5 -13z"/>
</g>
</svg>
